Coordinates
version=1
nRows=16
nColumns=36
inDegrees=yes

Units are S.I. units (second, meters, Newtons, ...)
If the header above contains a line with 'inDegrees', this indicates whether rotational values are in degrees (yes) or radians (no).

endheader
time	pelvis_tilt	pelvis_list	pelvis_rotation	pelvis_tx	pelvis_ty	pelvis_tz	hip_flexion_r	hip_adduction_r	hip_rotation_r	knee_angle_r	knee_angle_r_beta	ankle_angle_r	subtalar_angle_r	mtp_angle_r	hip_flexion_l	hip_adduction_l	hip_rotation_l	knee_angle_l	knee_angle_l_beta	ankle_angle_l	subtalar_angle_l	mtp_angle_l	lumbar_extension	lumbar_bending	lumbar_rotation	arm_flex_r	arm_add_r	arm_rot_r	elbow_flex_r	pro_sup_r	arm_flex_l	arm_add_l	arm_rot_l	elbow_flex_l	pro_sup_l
      3.52000000	     -9.39499782	     -0.60183118	     -0.31801034	     -0.47580232	      0.59246396	     -0.59885093	     86.58888165	     -4.90933110	      5.01330455	     91.40238322	      1.59527253	     21.10177481	     -5.62353880	     -7.49992787	     87.65924009	     -9.42569918	      0.37258146	     91.58356580	      1.59843476	     18.18971872	     -3.21633329	     -7.49992787	    -39.54109108	      0.62331721	     -0.62860094	     51.72186732	    -24.83285486	     15.81801336	    120.84716337	     96.66820733	     48.08263825	    -22.09634640	     13.40491390	    123.56255529	     95.48568856
      3.53000000	     -9.60852611	     -0.52086325	     -0.27069326	     -0.47075917	      0.59584278	     -0.59891758	     86.16682621	     -4.86800215	      5.13426767	     91.33039946	      1.59401618	     21.33059359	     -5.83793611	     -7.49992919	     87.16159433	     -9.34809209	      0.28124905	     91.43186083	      1.59578701	     18.62890268	     -3.38525689	     -7.49992919	    -39.32677215	      0.51704756	     -0.75381306	     53.28824312	    -25.00703370	     16.88204252	    120.67430197	     96.59235485	     49.58811244	    -22.22266993	     14.18002046	    123.40271636	     95.21838243
      3.54000000	    -10.05962890	     -0.47759750	     -0.21601626	     -0.46565091	      0.59932036	     -0.59902243	     85.90873950	     -4.82501655	      5.24054909	     91.14316037	      1.59074824	     21.46417602	     -5.91080561	     -7.49992940	     86.88030317	     -9.24071367	      0.26150292	     91.19354427	      1.59162760	     18.79919317	     -3.44233954	     -7.49992940	    -38.79183181	      0.45647241	     -0.81905568	     54.32633364	    -24.85919384	     17.20588523	    120.71826800	     96.59294032	     50.65060714	    -21.98402769	     14.38376007	    123.41932020	     95.18604714
      3.55000000	    -10.11869318	     -0.32494921	     -0.18655475	     -0.46055707	      0.60397501	     -0.59912045	     85.12437103	     -4.80380715	      5.44400916	     90.83921932	      1.58544347	     21.85174431	     -6.10968764	     -7.49993054	     85.99139889	     -9.13852834	      0.05303970	     90.81658175	      1.58504837	     19.25007850	     -3.39863630	     -7.49993054	    -38.62337243	      0.29694824	     -0.91670158	     55.63611337	    -25.16651551	     18.78325801	    120.63671173	     96.57356773	     51.79073902	    -22.03566420	     15.33510272	    123.31533706	     95.00824596
      3.56000000	    -10.38612672	     -0.26687480	     -0.26308222	     -0.45540459	      0.60878505	     -0.59887209	     84.47065981	     -4.64862691	      5.52704372	     90.38263304	      1.57747453	     22.12122947	     -6.22062972	     -7.49993131	     85.31477201	     -9.24077871	     -0.12328441	     90.38744267	      1.57755848	     19.38951439	     -3.04510731	     -7.49993131	    -38.17442885	      0.12609435	     -0.89457966	     56.37396703	    -25.09432531	     19.56093527	    120.69207845	     96.56422030	     52.43111666	    -21.82635262	     15.69213573	    123.47828496	     94.90998698
      3.57000000	    -10.59148098	     -0.26294871	     -0.31482746	     -0.45025388	      0.61414080	     -0.59874176	     83.67760563	     -4.57373255	      5.48978750	     89.82816747	      1.56779728	     22.33474344	     -6.25940306	     -7.49993319	     84.51874282	     -9.34521223	     -0.24450194	     89.88118005	      1.56872253	     19.85105856	     -2.45867381	     -7.49993319	    -37.74120153	      0.03607692	     -0.92678921	     56.95394442	    -24.91413357	     20.30622870	    120.74154430	     96.52716227	     52.73851555	    -21.65838354	     15.77116159	    123.78777983	     94.73249776
      3.58000000	    -10.88166688	     -0.19965255	     -0.35399761	     -0.44517372	      0.61975794	     -0.59884158	     82.93954862	     -4.56085219	      5.51765163	     89.16419742	      1.55620882	     22.45810557	     -6.28036628	     -7.49993359	     83.75035860	     -9.38788270	     -0.43467765	     89.23697816	      1.55747908	     19.98556240	     -2.43434890	     -7.49993359	    -37.15521612	     -0.10917873	     -0.90353586	     57.10364690	    -24.78436134	     20.67065777	    120.92037357	     96.54743751	     52.78898930	    -21.28083772	     15.76489190	    124.05813502	     94.75206137
      3.59000000	    -11.17780322	     -0.17261270	     -0.36925460	     -0.44008823	      0.62559610	     -0.59905412	     82.18554771	     -4.65049079	      5.38585024	     88.45573525	      1.54384382	     22.48321119	     -6.24455373	     -7.49993373	     83.00306523	     -9.45597690	     -0.66785407	     88.57258252	      1.54588319	     20.05805315	     -2.41987834	     -7.49993373	    -36.46092390	     -0.19588037	     -0.87198784	     56.99337595	    -24.47663121	     21.01403566	    121.09916580	     96.57144446	     52.57033205	    -20.80157536	     15.88378112	    124.27901037	     94.78581497
      3.60000000	    -11.42584050	     -0.14033737	     -0.44172188	     -0.43511625	      0.63205868	     -0.59908490	     81.28928539	     -4.63094915	      5.32902019	     87.57053938	      1.52839424	     22.50346014	     -6.19630932	     -7.49993390	     82.08391441	     -9.55086187	     -0.88492474	     87.71408893	      1.53089965	     20.15481269	     -2.41323023	     -7.49993390	    -35.83272038	     -0.31613940	     -0.79491910	     56.73120415	    -24.27304134	     21.36738554	    121.29773587	     96.59776076	     52.13229444	    -20.36518071	     15.86165192	    124.55402934	     94.81899991
      3.61000000	    -11.38676998	     -0.02288192	     -0.65995270	     -0.43028114	      0.63937846	     -0.59885322	     80.02877734	     -4.48419543	      5.37310814	     86.53762448	      1.51036647	     22.59420110	     -6.21953461	     -7.49993451	     80.74225313	     -9.78667547	     -1.28121383	     86.78176982	      1.51462761	     20.42847957	     -2.44119966	     -7.49993451	    -35.61455328	     -0.56136383	     -0.65262661	     56.53812537	    -24.00682211	     21.68186799	    121.65039260	     96.63630875	     51.52627464	    -19.88606796	     15.06890445	    125.08984173	     94.84340733
      3.62000000	    -11.63623197	      0.01044769	     -0.70560104	     -0.42536690	      0.64628633	     -0.59896090	     79.07216642	     -4.59583985	      5.16762142	     85.51872861	      1.49258339	     22.55526835	     -6.14982159	     -7.49993466	     79.77792651	     -9.86084202	     -1.57080729	     85.84986365	      1.49836278	     20.44081112	     -2.34879594	     -7.49993466	    -34.86761412	     -0.64598785	     -0.56540083	     55.81064764	    -23.65599554	     22.00302689	    121.81109235	     96.66202878	     50.64840170	    -19.60525553	     15.20114937	    125.28543753	     94.87693714
      3.63000000	    -11.55849489	      0.17576011	     -0.84765717	     -0.42065008	      0.65411598	     -0.59893021	     77.72545308	     -4.55864360	      5.27048458	     84.35896781	      1.47234174	     22.51878785	     -6.21337323	     -7.49993550	     78.29855333	     -9.98278470	     -2.02776160	     84.71273261	      1.47851610	     20.61900385	     -2.12006127	     -7.49993550	    -34.58947926	     -0.83380318	     -0.62942038	     55.18979815	    -22.99669616	     21.91515318	    121.97334449	     96.70070858	     49.56353140	    -19.36002036	     14.39562771	    125.78961089	     94.98990856
      3.64000000	    -11.73498719	      0.21176506	     -0.91847656	     -0.41584992	      0.66139230	     -0.59909337	     76.72492717	     -4.70893825	      5.00992351	     83.30455892	      1.45393884	     22.43310895	     -6.12062378	     -7.49993564	     77.21334508	    -10.06668791	     -2.34586146	     83.67570602	      1.46041657	     20.61158533	     -2.01170254	     -7.49993564	    -33.83631681	     -0.90736784	     -0.49153785	     54.20143370	    -22.65928714	     22.24965243	    122.09752419	     96.72955201	     48.40033712	    -19.10620361	     14.54482029	    125.93298743	     95.03349486
      3.65000000	    -11.51873343	      0.36416114	     -1.02003615	     -0.41119236	      0.66992824	     -0.59921382	     75.16663868	     -4.76024361	      5.05698757	     82.02537679	      1.43161290	     22.35717036	     -6.09383145	     -7.49993650	     75.52224943	    -10.11236076	     -2.81663225	     82.37602613	      1.43773288	     20.75265212	     -1.79843285	     -7.49993650	    -33.66472266	     -1.13087927	     -0.61106982	     53.23998263	    -21.97137268	     21.88143422	    122.09242647	     96.80015709	     47.13203140	    -18.67544980	     13.45727595	    126.27250357	     95.14746148
      3.66000000	    -11.42807376	      0.41954546	     -1.02486587	     -0.40647399	      0.67825930	     -0.59956689	     73.68952776	     -4.92631245	      4.90668548	     80.69567286	      1.40840518	     22.38922848	     -6.03498928	     -7.49993747	     74.02375385	    -10.06910078	     -3.16573963	     81.07260604	      1.41498391	     20.81559458	     -1.62592160	     -7.49993747	    -33.25906135	     -1.20352942	     -0.69865053	     52.07236369	    -21.37952609	     21.77888337	    122.00209188	     96.93875752	     45.73392421	    -18.32879871	     12.81947083	    126.51322072	     95.29324640
      3.67000000	    -11.54698798	      0.43842574	     -1.06663435	     -0.40162345	      0.68608694	     -0.59977259	     72.47887894	     -5.06153262	      4.62547349	     79.39568959	      1.38571620	     22.33915992	     -5.93430216	     -7.49993763	     72.80596912	    -10.06727570	     -3.44588764	     79.86213894	      1.39385727	     20.77664519	     -1.51295339	     -7.49993763	    -32.49818821	     -1.28285804	     -0.60553224	     50.64236327	    -21.05929683	     22.05985781	    122.06038101	     96.98461242	     44.22584961	    -18.06818836	     12.87089086	    126.60315974	     95.33440951
